<svg xmlns="http://www.w3.org/2000/svg" viewBox="0 0 319.02 219"><defs><style>.cls-1{fill:#f2f2f2;}</style></defs><title>logo_sq_light</title><g id="Layer_2" data-name="Layer 2"><g id="logo-4:3"><g id="trace"><path class="cls-1" d="M34.73,55a37.36,37.36,0,0,1,23.19,3.46c15,7.44,20,23.47,11.87,38.11-.36.66-.77,1.3-1.16,2-3.68,6.21-3.16,7.9,1.64,13.08,3.67,4,7.38,8.25,9.68,13.06,8.42,17.52-2.57,38-22.42,42.24a61.4,61.4,0,0,1-32.32-2.06A134.46,134.46,0,0,0,10.71,161c-6.21-1.29-8.35-3.88-6.78-10.08,2.28-9.07,1.32-18,.21-27.11C2.54,110.7,1.36,97.57,0,84.46A3.38,3.38,0,0,1,0,84C.1,64.46,7.65,56.36,27.16,55,29.73,54.8,32.32,55,34.73,55Zm10,99.16c6.15-1.77,11.88-2.78,17-5.08,6.14-2.73,7.59-8.48,4.7-14.52A33.38,33.38,0,0,0,25,117.78c-5.41,2-7.31,5.57-6.44,11.43a13.11,13.11,0,0,1-.26,5.22c-1.52,5.69-.22,10,5.3,12.4C30.45,149.76,37.73,151.75,44.77,154.11Zm-5.23-86.8c-7.2.83-12.37,1.08-17.4,2.08-7.1,1.41-11.07,7.4-11,15.71,0,6.89,3.37,11.15,10.67,12.62,3.82.77,7.82.68,11.74.89,3.32.18,6.69-.1,10,.39,7.58,1.15,12-1,14.48-7.62,3.55-9.36,2.4-16.22-4.39-19.61C48.68,69.34,43.05,68.38,39.54,67.31Z"/><path class="cls-1" d="M178.79,77.55c-5.89,0-11-.63-15.79.21a19.06,19.06,0,0,0-9.79,5c-5.07,5.11-2.78,12.31,4.2,14,4.08,1,8.47.75,12.57,1.71,18.17,4.28,30.1,16.26,36.7,32.93,5.31,13.41-2.89,24.72-17.24,25.85s-27.92-.73-39-11.23c-.77-.73-1.57-1.43-2.3-2.19a5.58,5.58,0,0,1-.68-1.12c3.86-6.23,8.48-7.86,15.49-5.15,4.66,1.8,9.08,4.24,13.78,5.88,7.59,2.66,12.66.13,15.61-7.25,2.11-5.31.86-9.7-4.63-13.87-8.38-6.37-17.36-11.57-27.88-13.82a71.34,71.34,0,0,1-15.14-4.72,30.73,30.73,0,0,1-10-7.53c-4.64-5.38-4.09-12.33,1.09-17.2a44.88,44.88,0,0,1,22.38-11.48C167,65.82,173.31,69.85,178.79,77.55Z"/><path class="cls-1" d="M308.12,140.57c-21-3.29-40.65-10.22-53.83-29.12-6-8.64-5.87-17.1.11-25.8,8.35-12.16,18-22.93,32.2-28.44,2.39-.92,4.89-2.17,7.34-2.16,2.22,0,5.25,1,6.37,2.57.76,1.09-.6,4.63-2,6.06-3.75,3.73-8.42,6.55-12,10.39-5.16,5.48-10.42,11.11-14.33,17.47-6.07,9.89-3.87,18.06,5.56,24.82,9.74,7,20.48,10.9,32.66,10.65,7.65-.16,8.95.75,8.87,4.68C318.92,136.52,314.25,140.55,308.12,140.57Z"/><path class="cls-1" d="M179.82,27.51q.72,5.5,1.46,11c.43,3.15-1,4.82-4.07,5.41-6.83,1.31-12.14-1.81-12.83-8.72-.89-8.88-1-17.84-1.07-26.77,0-4.34,2.71-6.44,7.07-6.66,4.2-.21,7.25,1.32,7.84,5.75.88,6.6,1.48,13.25,2.19,19.87Z"/><path class="cls-1" d="M306.1,22.81c0,1.51.08,3,0,4.54-.36,6.21-3.08,8.94-9,9.06-5.44.12-8.46-2.57-9.2-8.49a155.89,155.89,0,0,1-1.48-15.81,14.34,14.34,0,0,1,2-7.69c3.91-6.15,11.58-5.87,14.34.78,2.28,5.46,3,11.56,4.47,17.37Z"/><path class="cls-1" d="M166.34,190.09c.48-3.57-.08-7.36,4.75-8.34,4.26-.86,9.27,1.21,10.34,5.51,2.16,8.65,3.64,17.48,5,26.3.43,2.84-1.62,4.74-4.62,5.24-4.73.8-8.72-.84-10.25-4.79a59,59,0,0,1-2.43-9.22C168.11,199.91,167.26,195,166.34,190.09Z"/><path class="cls-1" d="M289.3,166.92c.12-1.67.32-3.32.36-5,.06-3.05,1-5.5,4.45-5.74s6.73,1.05,7.39,4.65q3.09,17,5.31,34.1c.19,1.45-1.66,4.12-3.06,4.53-1.22.35-3.68-1.34-4.63-2.76a43.75,43.75,0,0,1-4.9-9.67c-2.25-6.5-4-13.16-6-19.76Z"/></g></g></g></svg>