<svg xmlns="http://www.w3.org/2000/svg" viewBox="0 0 1231 225"><defs><style>.cls-1{fill:#fff;}.cls-2{fill:#3c3c3c;}</style></defs><title>logo_rec</title><g id="Layer_2" data-name="Layer 2"><g id="_16:9" data-name="16:9"><rect class="cls-1" x="322.5" width="908.5" height="224.5"/><rect class="cls-2" width="323" height="225"/><path class="cls-2" d="M349.19,67.55h36.07c13.3,0,22,6.28,22,19.16,0,7.79-3.85,13.42-10.61,16.45v.21c9.05,2.06,13.93,9.42,13.93,19.92,0,12.12-8.1,21.54-27.34,21.54H349.19Zm13,32.36h21.21c6.24,0,10.91-3.79,10.91-10.71,0-7.8-3.84-10.61-10.91-10.61H362.18Zm0,33.88h23c7.91,0,12.48-4.44,12.48-12.23,0-7.58-4.57-11.91-12.48-11.91h-23Z"/><path class="cls-2" d="M416,88.87h11.12V99.69h.21c1.35-6,8.42-12.33,15.7-12.33a27.15,27.15,0,0,1,4.47.32V99.59a40,40,0,0,0-5.09-.55c-8.11,0-14.56,6.82-14.56,19.16v26.63H416Z"/><path class="cls-2" d="M448.26,67.55h11.85V79.24H448.26Zm0,21.32h11.85v56H448.26Z"/><path class="cls-2" d="M513.33,132.38c0,3,.63,4.22,2.81,4.22a15.49,15.49,0,0,0,2.91-.22v8.55a28.7,28.7,0,0,1-7.49,1.41c-4.78,0-8.21-1.73-9.14-6.82-4.68,4.76-12.27,6.82-18.61,6.82-9.67,0-18.4-5.41-18.4-16.34,0-14,10.71-16.24,20.69-17.43,8.52-1.62,16.11-.65,16.11-7.9,0-6.38-6.34-7.57-11.12-7.57-6.66,0-11.33,2.81-11.85,8.87H467.39c.83-14.39,12.57-18.61,24.42-18.61,10.5,0,21.52,4.43,21.52,16.23Zm-11.85-15.59c-3.64,2.49-9.35,2.38-14.55,3.36s-9.67,2.81-9.67,9.31c0,5.52,6.76,7.14,10.92,7.14,5.19,0,13.3-2.81,13.3-10.61Z"/><path class="cls-2" d="M521.44,88.87h11.23V97.1l.21.21a19.1,19.1,0,0,1,16.73-10c11.65,0,19,6.49,19,19v38.43H556.79V109.65c-.21-8.77-3.54-12.55-10.5-12.55-7.9,0-13,6.49-13,14.72v33H521.44Z"/><path class="cls-2" d="M602.11,67.55h18.3l20.48,60.5h.21l19.95-60.5h18.09v77.28H666.77V85.19h-.21L646,144.83H635.27L614.69,85.19h-.21v59.64H602.11Z"/><path class="cls-2" d="M685.9,116.79c0-17.1,9.88-29.43,27.13-29.43s27.14,12.33,27.14,29.43-9.88,29.55-27.14,29.55S685.9,134,685.9,116.79Zm42.42,0c0-9.63-4.68-19.69-15.29-19.69s-15.28,10.06-15.28,19.69S702.43,136.6,713,136.6,728.32,126.53,728.32,116.79Z"/><path class="cls-2" d="M745.37,88.87h11.22V97.1l.21.21a19.11,19.11,0,0,1,16.74-10c11.64,0,19,6.49,19,19v38.43H780.71V109.65c-.21-8.77-3.54-12.55-10.5-12.55-7.9,0-13,6.49-13,14.72v33H745.37Z"/><path class="cls-2" d="M809.61,120c0,8.77,4.57,16.56,14.45,16.56,6.86,0,11-3.14,13.1-9.31h11.22c-2.59,12.23-12.57,19-24.32,19-16.84,0-26.3-12.23-26.3-29.44,0-15.91,10-29.54,26-29.54,16.94,0,27.34,15.91,25.36,32.68Zm27.65-8.12c-.42-7.79-5.51-14.82-13.51-14.82-8.21,0-13.83,6.49-14.14,14.82Z"/><path class="cls-2" d="M847.55,88.87h13l14,41.78h.21l13.62-41.78h12.37l-20.9,59c-3.84,10.06-6.65,19.15-19,19.15a50.63,50.63,0,0,1-8.21-.65V156a32.73,32.73,0,0,0,5.61.76c5.51,0,6.86-3,8.32-7.79l1.35-4.33Z"/><path class="cls-2" d="M903.07,88.87h11.22v7.58h.21c3.33-6.39,9.77-9.09,16.63-9.09,17,0,25.16,13.42,25.16,29.76,0,15-7.28,29.22-23.18,29.22-6.86,0-14.24-2.6-18-8.77h-.21V165.5H903.07Zm26.5,8.23c-10,0-15.07,7.9-15.07,19.8,0,11.26,5.51,19.7,15.07,19.7,10.82,0,14.87-10,14.87-19.7C944.44,106.73,939.35,97.1,929.57,97.1Z"/><path class="cls-2" d="M970.85,120c0,8.77,4.57,16.56,14.45,16.56,6.86,0,11-3.14,13.09-9.31h11.23c-2.6,12.23-12.58,19-24.32,19-16.84,0-26.3-12.23-26.3-29.44,0-15.91,10-29.54,26-29.54,16.95,0,27.34,15.91,25.37,32.68Zm27.65-8.12C998.08,104.13,993,97.1,985,97.1c-8.21,0-13.82,6.49-14.13,14.82Z"/><path class="cls-2" d="M1014.72,88.87h11.22V97.1l.21.21a19.12,19.12,0,0,1,16.74-10c11.64,0,19,6.49,19,19v38.43h-11.85V109.65c-.21-8.77-3.53-12.55-10.5-12.55-7.9,0-13,6.49-13,14.72v33h-11.85Z"/><path class="cls-2" d="M1069.71,88.87h11.23V97.1l.2.21a19.12,19.12,0,0,1,16.74-10c11.64,0,19,6.49,19,19v38.43h-11.85V109.65c-.2-8.77-3.53-12.55-10.5-12.55-7.9,0-13,6.49-13,14.72v33h-11.85Z"/><path class="cls-2" d="M1118.78,88.87h13l14,41.78h.21l13.62-41.78H1172l-20.89,59c-3.85,10.06-6.66,19.15-19,19.15a50.72,50.72,0,0,1-8.21-.65V156a32.73,32.73,0,0,0,5.61.76c5.51,0,6.86-3,8.32-7.79l1.35-4.33Z"/><g id="trace"><path class="cls-1" d="M63.31,70.16a29,29,0,0,1,18,2.68c11.6,5.78,15.49,18.22,9.22,29.58-.29.52-.61,1-.91,1.52-2.85,4.82-2.45,6.13,1.28,10.15,2.85,3.08,5.72,6.41,7.51,10.14,6.54,13.6-2,29.5-17.4,32.79a47.75,47.75,0,0,1-25.1-1.6,106.39,106.39,0,0,0-11.25-3c-4.82-1-6.48-3-5.26-7.82,1.77-7,1-14,.16-21-1.24-10.15-2.15-20.34-3.21-30.51,0-.12,0-.24,0-.36.07-15.17,5.94-21.46,21.08-22.53C59.43,70,61.44,70.16,63.31,70.16Zm7.79,77c4.78-1.38,9.22-2.16,13.22-3.94,4.77-2.12,5.89-6.59,3.65-11.28a25.92,25.92,0,0,0-32.24-13c-4.2,1.57-5.67,4.32-5,8.87a10.23,10.23,0,0,1-.2,4c-1.18,4.42-.17,7.8,4.12,9.63C60,143.76,65.64,145.29,71.1,147.13ZM67,79.75c-5.58.64-9.6.84-13.51,1.61C48,82.46,44.94,87.11,45,93.56c0,5.35,2.62,8.66,8.29,9.8a62.53,62.53,0,0,0,9.11.69c2.57.13,5.19-.08,7.73.3,5.89.89,9.29-.79,11.24-5.92,2.76-7.26,1.86-12.59-3.41-15.22C74.14,81.32,69.77,80.58,67,79.75Z"/><path class="cls-1" d="M175.14,87.7c-4.58,0-8.52-.49-12.26.16a14.9,14.9,0,0,0-7.61,3.86c-3.93,4-2.15,9.56,3.26,10.87,3.18.77,6.58.59,9.77,1.33,14.1,3.32,23.36,12.62,28.49,25.57,4.12,10.4-2.25,19.18-13.38,20.06s-21.68-.56-30.26-8.71c-.59-.57-1.22-1.11-1.79-1.71a4.26,4.26,0,0,1-.52-.87c3-4.83,6.58-6.09,12-4,3.62,1.39,7,3.29,10.7,4.56,5.89,2.06,9.82.1,12.11-5.63,1.65-4.12.67-7.53-3.59-10.76-6.5-5-13.47-9-21.64-10.73A55.08,55.08,0,0,1,148.69,108a23.76,23.76,0,0,1-7.78-5.84c-3.61-4.18-3.17-9.58.85-13.36a34.78,34.78,0,0,1,17.37-8.9C166,78.59,170.88,81.72,175.14,87.7Z"/><path class="cls-1" d="M275.53,136.62c-16.29-2.56-31.56-7.93-41.79-22.61-4.66-6.7-4.56-13.27.09-20,6.48-9.44,13.95-17.8,25-22.08,1.86-.72,3.8-1.68,5.7-1.68,1.73,0,4.08.75,5,2,.58.84-.47,3.6-1.58,4.7C265,79.83,261.35,82,258.55,85c-4,4.25-8.09,8.62-11.12,13.56-4.71,7.68-3,14,4.32,19.27,7.55,5.41,15.89,8.46,25.35,8.26,5.93-.12,6.94.59,6.88,3.64C283.91,133.48,280.28,136.6,275.53,136.62Z"/><path class="cls-1" d="M175.93,48.86c.38,2.85.75,5.7,1.14,8.55.33,2.45-.78,3.74-3.16,4.2-5.3,1-9.43-1.41-10-6.77-.69-6.89-.8-13.85-.83-20.78,0-3.37,2.1-5,5.48-5.17s5.63,1,6.09,4.46c.69,5.13,1.15,10.29,1.7,15.43Z"/><path class="cls-1" d="M274,45.2c0,1.18.06,2.36,0,3.53-.28,4.82-2.39,6.94-7,7-4.22.09-6.57-2-7.14-6.6-.5-4.08-1.06-8.17-1.15-12.27a11.13,11.13,0,0,1,1.53-6c3-4.77,9-4.56,11.14.6,1.76,4.25,2.35,9,3.46,13.49Z"/><path class="cls-1" d="M165.47,175.06c.37-2.77-.07-5.71,3.69-6.47,3.3-.67,7.19.93,8,4.27,1.67,6.72,2.82,13.57,3.87,20.42.34,2.2-1.25,3.68-3.58,4.07-3.68.62-6.77-.66-8-3.72a46,46,0,0,1-1.88-7.16C166.84,182.68,166.19,178.87,165.47,175.06Z"/><path class="cls-1" d="M260.91,157.07c.1-1.29.26-2.58.29-3.87.05-2.37.76-4.27,3.45-4.46s5.23.82,5.74,3.62q2.4,13.17,4.12,26.46a4.34,4.34,0,0,1-2.38,3.52c-.94.27-2.85-1-3.59-2.15a33.69,33.69,0,0,1-3.8-7.5c-1.75-5.05-3.14-10.22-4.68-15.33Z"/></g></g></g></svg>